<svg width="143" height="21" viewBox="0 0 143 21" fill="none" xmlns="http://www.w3.org/2000/svg">
<path d="M4.64844 20.3076C3.97624 20.3076 3.21859 20.1994 2.37549 19.9829C1.54378 19.755 0.877279 19.3791 0.375977 18.855L1.0083 15.5566C1.47542 16.0465 2.03939 16.4282 2.7002 16.7017C3.3724 16.9637 4.02751 17.0947 4.66553 17.0947C5.41748 17.0947 5.98145 16.901 6.35742 16.5137C6.7334 16.1149 6.98405 15.5908 7.10938 14.9414C7.2347 14.292 7.29736 13.597 7.29736 12.8564V7.43896C7.29736 6.18571 7.28597 5.0179 7.26318 3.93555C7.25179 2.85319 7.20052 1.97021 7.10938 1.28662H10.9546C10.9546 1.28662 10.9546 1.54867 10.9546 2.07275C10.9546 2.59684 10.9546 3.28044 10.9546 4.12354C10.9546 4.95524 10.9546 5.85531 10.9546 6.82373C10.9546 7.78076 10.9546 8.70931 10.9546 9.60938C10.9546 10.5094 10.9546 11.2785 10.9546 11.9165C10.9546 12.5545 10.9546 12.9647 10.9546 13.147C10.9546 15.756 10.3735 17.6017 9.21143 18.6841C8.06071 19.7664 6.53971 20.3076 4.64844 20.3076ZM20.4907 20.3076C18.6906 20.3076 17.2152 19.7266 16.0645 18.5645C14.9137 17.391 14.3384 15.7048 14.3384 13.5059C14.3384 12.0361 14.6289 10.7943 15.21 9.78027C15.8024 8.76628 16.5828 7.99723 17.5513 7.47314C18.5311 6.93766 19.5964 6.66992 20.7471 6.66992C22.5586 6.66992 24.034 7.25667 25.1733 8.43018C26.3241 9.60368 26.8994 11.2956 26.8994 13.5059C26.8994 14.9756 26.6032 16.2174 26.0107 17.2314C25.4297 18.234 24.6549 18.9974 23.6865 19.5215C22.7181 20.0456 21.6528 20.3076 20.4907 20.3076ZM20.6274 17.4365C21.4478 17.4365 22.0972 17.089 22.5757 16.394C23.0656 15.6877 23.3105 14.7249 23.3105 13.5059C23.3105 12.2754 23.0827 11.3127 22.627 10.6177C22.1712 9.9113 21.5047 9.55811 20.6274 9.55811C19.7957 9.55811 19.1349 9.9113 18.645 10.6177C18.1665 11.3127 17.9272 12.2754 17.9272 13.5059C17.9272 14.7249 18.1551 15.6877 18.6108 16.394C19.078 17.089 19.7502 17.4365 20.6274 17.4365ZM30.3687 20C30.3687 20 30.3687 19.7721 30.3687 19.3164C30.3687 18.8493 30.3687 18.2568 30.3687 17.5391C30.3687 16.8213 30.3687 16.075 30.3687 15.3003C30.3687 14.5256 30.3687 13.8306 30.3687 13.2153C30.3687 11.9621 30.3573 10.7715 30.3345 9.64355C30.3117 8.50423 30.2547 7.59847 30.1636 6.92627H33.9575C33.9575 6.92627 33.9575 7.13135 33.9575 7.5415C33.9575 7.94027 33.9575 8.45296 33.9575 9.07959C33.9575 9.69482 33.9575 10.3385 33.9575 11.0107C33.9575 11.6715 33.9575 12.2697 33.9575 12.8052C33.9575 13.3293 33.9575 13.6995 33.9575 13.916C33.9575 14.4629 33.9632 15.1294 33.9746 15.9155C33.9974 16.6903 34.0259 17.4536 34.0601 18.2056C34.1056 18.9461 34.1569 19.5443 34.2139 20H30.3687ZM32.1631 4.49951C31.5137 4.49951 30.9725 4.29443 30.5396 3.88428C30.118 3.46273 29.9072 2.92155 29.9072 2.26074C29.9072 1.59993 30.118 1.05876 30.5396 0.637207C30.9725 0.215658 31.5137 0.00488281 32.1631 0.00488281C32.8125 0.00488281 33.348 0.215658 33.7695 0.637207C34.1911 1.05876 34.4019 1.59993 34.4019 2.26074C34.4019 2.92155 34.1911 3.46273 33.7695 3.88428C33.348 4.29443 32.8125 4.49951 32.1631 4.49951ZM38.1104 20C38.1104 20 38.1104 19.7152 38.1104 19.1455C38.1104 18.5758 38.1104 17.8638 38.1104 17.0093C38.1104 16.1434 38.1104 15.2718 38.1104 14.3945C38.1104 13.5059 38.1104 12.7482 38.1104 12.1216C38.1104 10.8683 38.0363 9.80306 37.8882 8.92578C37.7515 8.03711 37.6147 7.37061 37.478 6.92627H40.9985C41.0897 7.17692 41.1865 7.56429 41.2891 8.08838C41.3916 8.60107 41.4657 9.00553 41.5112 9.30176C42.3201 8.36751 43.1177 7.69531 43.9038 7.28516C44.7013 6.875 45.5501 6.66992 46.4502 6.66992C47.749 6.66992 48.7687 7.11995 49.5093 8.02002C50.2498 8.90869 50.6201 10.236 50.6201 12.002C50.6201 12.4235 50.6201 12.9704 50.6201 13.6426C50.6201 14.3034 50.6201 14.9984 50.6201 15.7275C50.6201 16.4567 50.6201 17.146 50.6201 17.7954C50.6201 18.4448 50.6201 18.9746 50.6201 19.3848C50.6201 19.7949 50.6201 20 50.6201 20H47.0312C47.0312 20 47.0312 19.7266 47.0312 19.1797C47.0312 18.6214 47.0312 17.9435 47.0312 17.146C47.0312 16.3371 47.0312 15.5509 47.0312 14.7876C47.0312 14.0129 47.0312 13.4033 47.0312 12.959C47.0312 11.7741 46.8717 10.9538 46.5527 10.498C46.2337 10.0423 45.7267 9.81445 45.0317 9.81445C44.3026 9.81445 43.619 10.1107 42.981 10.7031C42.3543 11.2842 41.9271 11.9051 41.6992 12.5659V20H38.1104ZM61.8994 20C61.9906 19.4873 62.0418 18.7467 62.0532 17.7783C62.076 16.8099 62.0874 15.6934 62.0874 14.4287V7.18262C62.0874 5.92936 62.076 4.76156 62.0532 3.6792C62.0418 2.59684 61.9906 1.79932 61.8994 1.28662C61.8994 1.28662 62.1045 1.28092 62.5146 1.26953C62.9362 1.25814 63.4717 1.24674 64.1211 1.23535C64.7819 1.21257 65.4883 1.19548 66.2402 1.18408C67.0036 1.17269 67.7271 1.16699 68.4106 1.16699C70.4842 1.16699 72.159 1.6569 73.4351 2.63672C74.7225 3.61654 75.3662 5.09196 75.3662 7.06299C75.3662 9.03402 74.7111 10.5892 73.4009 11.7285C72.1021 12.8678 70.3988 13.4375 68.291 13.4375C67.8239 13.4375 67.3853 13.4261 66.9751 13.4033C66.5763 13.3805 66.1662 13.3464 65.7446 13.3008V14.4287C65.7446 15.7048 65.756 16.827 65.7788 17.7954C65.8016 18.7638 65.8529 19.4987 65.9326 20H61.8994ZM67.8979 10.6519C70.4386 10.6519 71.709 9.49544 71.709 7.18262C71.709 6.25977 71.4185 5.50781 70.8374 4.92676C70.2677 4.3457 69.305 4.05518 67.9492 4.05518C67.4593 4.05518 67.0605 4.06087 66.7529 4.07227C66.4453 4.07227 66.1092 4.08366 65.7446 4.10645V10.5151C66.0181 10.5607 66.3485 10.5949 66.7358 10.6177C67.1232 10.6405 67.5106 10.6519 67.8979 10.6519ZM83.6206 20.3076C81.8205 20.3076 80.3451 19.7266 79.1943 18.5645C78.0436 17.391 77.4683 15.7048 77.4683 13.5059C77.4683 12.0361 77.7588 10.7943 78.3398 9.78027C78.9323 8.76628 79.7127 7.99723 80.6812 7.47314C81.661 6.93766 82.7262 6.66992 83.877 6.66992C85.6885 6.66992 87.1639 7.25667 88.3032 8.43018C89.4539 9.60368 90.0293 11.2956 90.0293 13.5059C90.0293 14.9756 89.7331 16.2174 89.1406 17.2314C88.5596 18.234 87.7848 18.9974 86.8164 19.5215C85.848 20.0456 84.7827 20.3076 83.6206 20.3076ZM83.7573 17.4365C84.5776 17.4365 85.2271 17.089 85.7056 16.394C86.1955 15.6877 86.4404 14.7249 86.4404 13.5059C86.4404 12.2754 86.2126 11.3127 85.7568 10.6177C85.3011 9.9113 84.6346 9.55811 83.7573 9.55811C82.9256 9.55811 82.2648 9.9113 81.7749 10.6177C81.2964 11.3127 81.0571 12.2754 81.0571 13.5059C81.0571 14.7249 81.285 15.6877 81.7407 16.394C82.2078 17.089 82.88 17.4365 83.7573 17.4365ZM97.9077 20.3076C96.7684 20.3076 95.7145 20.1652 94.7461 19.8804C93.7891 19.5841 93.0314 19.2424 92.4731 18.855L93.1738 15.7104C93.8118 16.2345 94.5809 16.6561 95.481 16.9751C96.3924 17.2827 97.2241 17.4365 97.9761 17.4365C98.5799 17.4365 99.0698 17.3226 99.4458 17.0947C99.8332 16.8555 100.027 16.5877 100.027 16.2915C100.027 15.9155 99.8275 15.5851 99.4287 15.3003C99.0413 15.0041 98.2381 14.7249 97.019 14.4629C95.8114 14.2008 94.8885 13.8875 94.2505 13.5229C93.6125 13.1584 93.1738 12.7425 92.9346 12.2754C92.7067 11.8083 92.5928 11.307 92.5928 10.7715C92.5928 10.4639 92.6782 10.0822 92.8491 9.62646C93.02 9.15934 93.3105 8.70361 93.7207 8.25928C94.1423 7.80355 94.7119 7.42757 95.4297 7.13135C96.1589 6.82373 97.0703 6.66992 98.1641 6.66992C99.2122 6.66992 100.118 6.78385 100.881 7.01172C101.656 7.22819 102.288 7.45605 102.778 7.69531L102.283 10.7202C101.804 10.4582 101.2 10.1904 100.471 9.91699C99.742 9.63216 98.9331 9.48975 98.0444 9.48975C97.2925 9.48975 96.7741 9.62077 96.4893 9.88281C96.2044 10.1335 96.062 10.3898 96.062 10.6519C96.062 10.9709 96.2044 11.2215 96.4893 11.4038C96.7855 11.5747 97.4976 11.7741 98.6255 12.002C99.5142 12.1729 100.323 12.4121 101.052 12.7197C101.793 13.0273 102.385 13.4432 102.83 13.9673C103.274 14.4914 103.496 15.1579 103.496 15.9668C103.496 16.7871 103.245 17.5277 102.744 18.1885C102.254 18.8379 101.588 19.3563 100.745 19.7437C99.9015 20.1196 98.9559 20.3076 97.9077 20.3076ZM111.665 20.3076C110.856 20.3076 110.116 20.1994 109.443 19.9829C108.783 19.7664 108.253 19.3848 107.854 18.8379C107.467 18.291 107.273 17.5277 107.273 16.5479V3.08105H110.862V14.0869C110.862 15.0553 110.913 15.7731 111.016 16.2402C111.13 16.7074 111.306 17.015 111.545 17.1631C111.785 17.2998 112.098 17.3682 112.485 17.3682C112.816 17.3682 113.18 17.2884 113.579 17.1289C113.989 16.958 114.451 16.7188 114.963 16.4111V19.2822C114.348 19.6582 113.761 19.9202 113.203 20.0684C112.645 20.2279 112.132 20.3076 111.665 20.3076ZM104.829 9.69482V7.13135H114.758V9.69482H104.829ZM140.154 20.3076C139.504 20.3076 138.969 20.1025 138.547 19.6924C138.126 19.2822 137.915 18.7467 137.915 18.0859C137.915 17.4251 138.126 16.8896 138.547 16.4795C138.969 16.0579 139.504 15.8472 140.154 15.8472C140.803 15.8472 141.339 16.0579 141.76 16.4795C142.182 16.8896 142.393 17.4251 142.393 18.0859C142.393 18.7467 142.182 19.2822 141.76 19.6924C141.339 20.1025 140.803 20.3076 140.154 20.3076Z" fill="#292929"/>
<path d="M118.108 20C118.108 20 118.108 19.7721 118.108 19.3164C118.108 18.8493 118.108 18.2568 118.108 17.5391C118.108 16.8213 118.108 16.075 118.108 15.3003C118.108 14.5256 118.108 13.8306 118.108 13.2153C118.108 11.9621 118.097 10.7715 118.074 9.64355C118.051 8.50423 117.994 7.59847 117.903 6.92627H121.697C121.697 6.92627 121.697 7.13135 121.697 7.5415C121.697 7.94027 121.697 8.45296 121.697 9.07959C121.697 9.69482 121.697 10.3385 121.697 11.0107C121.697 11.6715 121.697 12.2697 121.697 12.8052C121.697 13.3293 121.697 13.6995 121.697 13.916C121.697 14.4629 121.702 15.1294 121.714 15.9155C121.737 16.6903 121.765 17.4536 121.799 18.2056C121.845 18.9461 121.896 19.5443 121.953 20H118.108ZM119.902 4.49951C119.253 4.49951 118.712 4.29443 118.279 3.88428C117.857 3.46273 117.646 2.92155 117.646 2.26074C117.646 1.59993 117.857 1.05876 118.279 0.637207C118.712 0.215658 119.253 0.00488281 119.902 0.00488281C120.552 0.00488281 121.087 0.215658 121.509 0.637207C121.93 1.05876 122.141 1.59993 122.141 2.26074C122.141 2.92155 121.93 3.46273 121.509 3.88428C121.087 4.29443 120.552 4.49951 119.902 4.49951ZM131.216 20.3076C130.407 20.3076 129.666 20.1994 128.994 19.9829C128.333 19.7664 127.804 19.3848 127.405 18.8379C127.017 18.291 126.824 17.5277 126.824 16.5479V3.08105H130.413V14.0869C130.413 15.0553 130.464 15.7731 130.566 16.2402C130.68 16.7074 130.857 17.015 131.096 17.1631C131.335 17.2998 131.649 17.3682 132.036 17.3682C132.367 17.3682 132.731 17.2884 133.13 17.1289C133.54 16.958 134.001 16.7188 134.514 16.4111V19.2822C133.899 19.6582 133.312 19.9202 132.754 20.0684C132.196 20.2279 131.683 20.3076 131.216 20.3076ZM124.38 9.69482V7.13135H134.309V9.69482H124.38Z" fill="#0086B0"/>
</svg>
